Coordinates
version=1
nRows=10
nColumns=23
inDegrees=yes

Units are S.I. units (second, meters, Newtons, ...)
If the header above contains a line with 'inDegrees', this indicates whether rotational values are in degrees (yes) or radians (no).

endheader
time	pelvis_tilt	pelvis_list	pelvis_rotation	pelvis_tx	pelvis_ty	pelvis_tz	hip_flexion_r	hip_adduction_r	hip_rotation_r	knee_angle_r	knee_angle_r_beta	ankle_angle_r	subtalar_angle_r	mtp_angle_r	hip_flexion_l	hip_adduction_l	hip_rotation_l	knee_angle_l	knee_angle_l_beta	ankle_angle_l	subtalar_angle_l	mtp_angle_l
     15.00000000	     -8.43805046	      3.39848932	      0.81870903	      2.24339517	      1.10356950	      1.04098810	    -20.70561952	     -4.03232840	    -22.69164146	     21.83194212	      0.38103927	    -21.97842404	     -8.03460515	      0.00000000	     50.68032830	      7.54230289	      1.42276782	     57.46638348	      1.00297760	     15.66424729	    -10.86119961	      0.00000000
     15.00666667	     -8.22771355	      3.43588607	      1.31084261	      2.24444390	      1.10492670	      1.04053479	    -21.35067218	     -4.05317411	    -23.62713969	     23.81623753	      0.41567176	    -21.97847034	     -9.73443093	      0.00000000	     49.53304650	      7.44140620	      0.89173478	     52.66701941	      0.91921290	     16.23743643	     -7.45158273	      0.00000000
     15.01333333	     -7.80076859	      3.38706679	      1.68537554	      2.24552668	      1.10624675	      1.04028199	    -22.10533853	     -3.95541301	    -24.07122146	     25.96978987	      0.45325834	    -21.60748224	    -11.31729033	      0.00000000	     48.00453466	      7.09390054	      0.00484295	     47.86604648	      0.83542011	     16.83454707	     -3.49769550	      0.00000000
     15.02000000	     -7.32525094	      3.42972666	      1.95471515	      2.24658493	      1.10730314	      1.04002018	    -22.71739105	     -4.02653551	    -24.24586439	     28.51277046	      0.49764172	    -21.13401870	    -12.82351276	      0.00000000	     46.23380780	      6.86348122	     -0.94770255	     42.97959472	      0.75013544	     17.17516938	     -0.14864044	      0.00000000
     15.02666667	     -6.84930787	      3.48596307	      2.14957372	      2.24756014	      1.10799332	      1.03970931	    -23.13572963	     -4.13005495	    -24.05054927	     31.36984126	      0.54750702	    -20.65046467	    -14.28151557	      0.00000000	     44.32018106	      6.76853631	     -1.74766623	     38.12429371	      0.66539445	     17.27402968	      2.58971170	      0.00000000
     15.03333333	     -6.15067843	      3.49440215	      2.27527814	      2.24872704	      1.10856747	      1.03955493	    -23.67803469	     -4.14551322	    -23.57468326	     34.35545432	      0.59961579	    -20.21889401	    -15.43528783	      0.00000000	     42.12097661	      6.58811390	     -2.72477458	     33.57503337	      0.58599488	     17.42513659	      5.65834895	      0.00000000
     15.04000000	     -5.53419583	      3.53739019	      2.38555465	      2.24981978	      1.10864647	      1.03935933	    -23.94568433	     -4.20071305	    -22.90811417	     37.64164546	      0.65697065	    -20.02514809	    -16.60288149	      0.00000000	     39.92406113	      6.63839295	     -3.21937091	     29.21556337	      0.50990777	     17.29117469	      7.61579164	      0.00000000
     15.04666667	     -4.90043538	      3.55252808	      2.46989520	      2.25083439	      1.10824800	      1.03926458	    -24.04795936	     -4.21006450	    -22.06972585	     41.18067281	      0.71873833	    -19.94707925	    -17.65328235	      0.00000000	     37.76083174	      6.71954870	     -3.46695808	     25.35365102	      0.44250469	     17.00490842	      9.13657018	      0.00000000
     15.05333333	     -4.21554682	      3.59390422	      2.63251718	      2.25184902	      1.10746307	      1.03917455	    -24.09671790	     -4.18686847	    -21.29160789	     44.87462141	      0.78320989	    -20.02857836	    -18.48474682	      0.00000000	     35.58485686	      6.92239370	     -3.33217061	     22.00388757	      0.38404029	     16.57733232	      9.99512703	      0.00000000
     15.06000000	     -3.61990800	      3.63379359	      2.80752898	      2.25275998	      1.10610145	      1.03919927	    -23.88252219	     -4.12494810	    -20.44413887	     48.79409795	      0.85161766	    -20.17873903	    -19.28236608	      0.00000000	     33.64946423	      7.11055814	     -3.04547914	     19.36633091	      0.33800624	     15.97875821	     10.27306824	      0.00000000
